# xmcd CD database file
# Copyright (C) 1993-2000  Ti Kan
#
# Track frame offsets:
#	900
#	29933
#	48118
#	63643
#	74415
#	102708
#	117568
#	130728
#	151795
#	161715
#
# Disc length: 2450 seconds
#
# Revision: 12
# Processed by: cddbd v1.5.2PL0 Copyright (c) Steve Scherf et al.
# Submitted via: xmcd 2.6 PL0
#
DISCID=8209820a,9509860a
DTITLE=Rolling Stones - Beggars Banquet
DYEAR=1900
DGENRE=
TTITLE0=Sympathy for the Devil
TTITLE1=No Expectations
TTITLE2=Dear Doctor
TTITLE3=Parachute Woman
TTITLE4=Jig-Saw Puzzle
TTITLE5=Street Fighting Man
TTITLE6=Prodigal Son
TTITLE7=Stray Cat Blues
TTITLE8=Factory Girl
TTITLE9=Salt of the Earth
EXTD=
EXTT0=
EXTT1=
EXTT2=
EXTT3=
EXTT4=
EXTT5=
EXTT6=
EXTT7=
EXTT8=
EXTT9=
PLAYORDER=
